<svg xmlns="http://www.w3.org/2000/svg" width="512" height="512" viewBox="0 0 512 512" role="img" aria-labelledby="t d">
  <title id="t">Termixion app icon</title>
  <desc id="d">Pure black squircle with a terracotta &gt;_ terminal prompt in the top-left and a butterfly in the bottom-right (1:3).</desc>
  <defs><path id="macos-squircle" d="M512.0 256.0 511.94 322.89 511.75 344.24 511.44 359.74 511.0 372.32 510.44 383.09 509.75 392.58 508.93 401.11 507.99 408.89 506.91 416.04 505.71 422.67 504.37 428.85 502.91 434.63 501.3 440.07 499.56 445.18 497.69 450.01 495.67 454.57 493.5 458.89 491.19 462.98 488.73 466.85 486.11 470.52 483.34 473.99 480.4 477.28 477.28 480.4 473.99 483.34 470.52 486.11 466.85 488.73 462.98 491.19 458.89 493.5 454.57 495.67 450.01 497.69 445.18 499.56 440.07 501.3 434.63 502.91 428.85 504.37 422.67 505.71 416.04 506.91 408.89 507.99 401.11 508.93 392.58 509.75 383.09 510.44 372.32 511.0 359.74 511.44 344.24 511.75 322.89 511.94 256.0 512.0 189.11 511.94 167.76 511.75 152.26 511.44 139.68 511.0 128.91 510.44 119.42 509.75 110.89 508.93 103.11 507.99 95.96 506.91 89.33 505.71 83.15 504.37 77.37 502.91 71.93 501.3 66.82 499.56 61.99 497.69 57.43 495.67 53.11 493.5 49.02 491.19 45.15 488.73 41.48 486.11 38.01 483.34 34.72 480.4 31.6 477.28 28.66 473.99 25.89 470.52 23.27 466.85 20.81 462.98 18.5 458.89 16.33 454.57 14.31 450.01 12.44 445.18 10.7 440.07 9.09 434.63 7.63 428.85 6.29 422.67 5.09 416.04 4.01 408.89 3.07 401.11 2.25 392.58 1.56 383.09 1.0 372.32 0.56 359.74 0.25 344.24 0.06 322.89 0.0 256.0 0.06 189.11 0.25 167.76 0.56 152.26 1.0 139.68 1.56 128.91 2.25 119.42 3.07 110.89 4.01 103.11 5.09 95.96 6.29 89.33 7.63 83.15 9.09 77.37 10.7 71.93 12.44 66.82 14.31 61.99 16.33 57.43 18.5 53.11 20.81 49.02 23.27 45.15 25.89 41.48 28.66 38.01 31.6 34.72 34.72 31.6 38.01 28.66 41.48 25.89 45.15 23.27 49.02 20.81 53.11 18.5 57.43 16.33 61.99 14.31 66.82 12.44 71.93 10.7 77.37 9.09 83.15 7.63 89.33 6.29 95.96 5.09 103.11 4.01 110.89 3.07 119.42 2.25 128.91 1.56 139.68 1.0 152.26 0.56 167.76 0.25 189.11 0.06 256.0 0.0 322.89 0.06 344.24 0.25 359.74 0.56 372.32 1.0 383.09 1.56 392.58 2.25 401.11 3.07 408.89 4.01 416.04 5.09 422.67 6.29 428.85 7.63 434.63 9.09 440.07 10.7 445.18 12.44 450.01 14.31 454.57 16.33 458.89 18.5 462.98 20.81 466.85 23.27 470.52 25.89 473.99 28.66 477.28 31.6 480.4 34.72 483.34 38.01 486.11 41.48 488.73 45.15 491.19 49.02 493.5 53.11 495.67 57.43 497.69 61.99 499.56 66.82 501.3 71.93 502.91 77.37 504.37 83.15 505.71 89.33 506.91 95.96 507.99 103.11 508.93 110.89 509.75 119.42 510.44 128.91 511.0 139.68 511.44 152.26 511.75 167.76 511.94 189.11Z"/></defs>
  <use href="#macos-squircle" fill="#000000"/>
  <polyline points="80.0,78.0 119.6,121.0 80.0,164.0" fill="none" stroke="#C56F52" stroke-width="11.2" stroke-linecap="round" stroke-linejoin="round"/>
  <line x1="131.6" y1="158.4" x2="178.9" y2="158.4" stroke="#C56F52" stroke-width="11.2" stroke-linecap="round"/>
  <path d="M127.3 141.8 144.5 141.8 161.7 144.2 176.6 148.3 194.3 156.0 209.8 165.5 221.0 174.4 235.2 188.6 247.7 205.2 251.3 200.5 260.7 200.5 264.3 205.2 276.8 188.6 295.1 170.8 317.7 156.0 335.4 148.3 360.9 142.4 384.7 141.8 394.1 144.8 402.4 151.9 405.4 157.8 406.0 163.7 403.6 169.7 396.5 175.6 396.5 182.7 393.5 191.0 386.4 199.3 378.7 204.1 378.1 212.4 375.2 217.7 369.2 223.0 365.1 224.8 362.1 230.1 353.8 238.4 336.6 251.5 343.2 255.6 344.9 263.9 350.3 268.1 353.2 272.2 352.0 278.8 346.7 283.5 349.7 289.4 349.7 294.8 342.6 300.1 340.8 309.6 338.4 314.3 328.9 322.6 330.1 328.0 342.0 344.0 343.2 353.5 340.8 357.0 333.7 358.2 330.1 355.2 326.6 338.6 324.8 335.1 320.6 331.5 317.7 331.5 308.2 336.3 296.9 335.1 292.2 337.5 286.8 337.5 284.5 335.7 279.7 322.6 274.4 316.7 271.4 310.2 269.0 277.6 266.1 266.3 262.5 259.2 261.3 266.9 261.9 294.8 260.7 298.9 258.4 301.3 253.6 301.3 250.7 297.1 250.7 266.9 250.1 259.8 248.9 259.8 244.7 269.9 242.4 281.1 240.6 310.2 237.6 316.7 232.3 322.6 227.5 335.7 225.2 337.5 219.8 337.5 215.1 335.1 203.8 336.3 194.3 331.5 191.4 331.5 187.2 335.1 185.4 338.6 181.9 355.2 178.3 358.2 173.6 358.2 170.0 355.8 168.8 353.5 170.0 344.0 181.9 328.0 183.1 322.6 173.6 314.3 171.2 309.6 169.4 300.1 162.3 294.8 162.3 289.4 165.3 283.5 160.0 278.8 158.8 272.2 160.0 269.9 167.1 263.9 168.8 255.6 175.4 251.5 158.2 238.4 149.9 230.1 146.9 224.8 142.8 223.0 136.8 217.7 133.9 212.4 133.3 204.1 125.6 199.3 120.8 194.6 116.1 185.1 115.5 175.6 108.4 169.7 106.6 166.1 106.0 160.2 109.6 151.9 117.9 144.8 127.3 141.8Z" transform="translate(296.00 337.80) scale(1.0000) translate(-256.0 -250.0)" fill="#C56F52"/>
</svg>
